<mxfile host="app.diagrams.net" modified="2021-01-27T03:44:25.696Z" agent="5.0 (Macintosh; Intel Mac OS X 10_15_7) AppleWebKit/537.36 (KHTML, like Gecko) Chrome/79.0.3945.130 Safari/537.36" etag="caDFu1zbT2xE84Ig5BbM" version="14.1.8" type="github">
  <diagram id="dRkD8M1Q5TQaFWF1ZGbi" name="Page-1">
    <mxGraphModel dx="788" dy="511" grid="1" gridSize="10" guides="1" tooltips="1" connect="1" arrows="1" fold="1" page="1" pageScale="1" pageWidth="827" pageHeight="1169" math="0" shadow="0">
      <root>
        <mxCell id="0" />
        <mxCell id="1" parent="0" />
        <mxCell id="DNhM-TmXbSj0VFOhJrKE-12" value="" style="rounded=0;whiteSpace=wrap;html=1;dashed=1;fillColor=none;" vertex="1" parent="1">
          <mxGeometry x="320" y="160" width="330" height="220" as="geometry" />
        </mxCell>
        <mxCell id="DNhM-TmXbSj0VFOhJrKE-10" value="" style="rounded=0;whiteSpace=wrap;html=1;dashed=1;fillColor=none;" vertex="1" parent="1">
          <mxGeometry x="20" y="180" width="290" height="170" as="geometry" />
        </mxCell>
        <mxCell id="DNhM-TmXbSj0VFOhJrKE-6" style="edgeStyle=orthogonalEdgeStyle;rounded=0;orthogonalLoop=1;jettySize=auto;html=1;exitX=1;exitY=0.5;exitDx=0;exitDy=0;entryX=0;entryY=0.5;entryDx=0;entryDy=0;" edge="1" parent="1" source="DNhM-TmXbSj0VFOhJrKE-1" target="DNhM-TmXbSj0VFOhJrKE-2">
          <mxGeometry relative="1" as="geometry" />
        </mxCell>
        <mxCell id="DNhM-TmXbSj0VFOhJrKE-1" value="用户编写C++&lt;br&gt;ForwardFunc&lt;br&gt;BackwardFunc" style="rounded=0;whiteSpace=wrap;html=1;" vertex="1" parent="1">
          <mxGeometry x="40" y="240" width="120" height="60" as="geometry" />
        </mxCell>
        <mxCell id="DNhM-TmXbSj0VFOhJrKE-7" style="edgeStyle=orthogonalEdgeStyle;rounded=0;orthogonalLoop=1;jettySize=auto;html=1;exitX=1;exitY=0.5;exitDx=0;exitDy=0;entryX=0;entryY=0.5;entryDx=0;entryDy=0;" edge="1" parent="1" source="DNhM-TmXbSj0VFOhJrKE-2" target="DNhM-TmXbSj0VFOhJrKE-3">
          <mxGeometry relative="1" as="geometry" />
        </mxCell>
        <mxCell id="DNhM-TmXbSj0VFOhJrKE-19" style="edgeStyle=orthogonalEdgeStyle;rounded=0;orthogonalLoop=1;jettySize=auto;html=1;exitX=0.5;exitY=1;exitDx=0;exitDy=0;entryX=0.5;entryY=0;entryDx=0;entryDy=0;fontSize=14;fillColor=#d5e8d4;strokeColor=#82b366;" edge="1" parent="1" source="DNhM-TmXbSj0VFOhJrKE-2">
          <mxGeometry relative="1" as="geometry">
            <mxPoint x="364.9999999999999" y="410" as="targetPoint" />
            <Array as="points">
              <mxPoint x="250" y="390" />
              <mxPoint x="365" y="390" />
            </Array>
          </mxGeometry>
        </mxCell>
        <mxCell id="DNhM-TmXbSj0VFOhJrKE-2" value="编译代码&lt;br&gt;形成so" style="rounded=0;whiteSpace=wrap;html=1;" vertex="1" parent="1">
          <mxGeometry x="200" y="240" width="100" height="60" as="geometry" />
        </mxCell>
        <mxCell id="DNhM-TmXbSj0VFOhJrKE-8" style="edgeStyle=orthogonalEdgeStyle;rounded=0;orthogonalLoop=1;jettySize=auto;html=1;exitX=1;exitY=0.5;exitDx=0;exitDy=0;entryX=0;entryY=0.5;entryDx=0;entryDy=0;" edge="1" parent="1" source="DNhM-TmXbSj0VFOhJrKE-3" target="DNhM-TmXbSj0VFOhJrKE-4">
          <mxGeometry relative="1" as="geometry" />
        </mxCell>
        <mxCell id="DNhM-TmXbSj0VFOhJrKE-9" style="edgeStyle=orthogonalEdgeStyle;rounded=0;orthogonalLoop=1;jettySize=auto;html=1;exitX=1;exitY=0.5;exitDx=0;exitDy=0;entryX=0;entryY=0.5;entryDx=0;entryDy=0;" edge="1" parent="1" source="DNhM-TmXbSj0VFOhJrKE-3" target="DNhM-TmXbSj0VFOhJrKE-5">
          <mxGeometry relative="1" as="geometry" />
        </mxCell>
        <mxCell id="DNhM-TmXbSj0VFOhJrKE-20" style="edgeStyle=orthogonalEdgeStyle;rounded=0;orthogonalLoop=1;jettySize=auto;html=1;exitX=0.5;exitY=1;exitDx=0;exitDy=0;entryX=0.5;entryY=0;entryDx=0;entryDy=0;fontSize=14;fillColor=#d5e8d4;strokeColor=#82b366;" edge="1" parent="1" source="DNhM-TmXbSj0VFOhJrKE-3">
          <mxGeometry relative="1" as="geometry">
            <mxPoint x="364.9999999999999" y="410" as="targetPoint" />
            <Array as="points">
              <mxPoint x="390" y="390" />
              <mxPoint x="365" y="390" />
            </Array>
          </mxGeometry>
        </mxCell>
        <mxCell id="DNhM-TmXbSj0VFOhJrKE-3" value="载入用户so" style="rounded=0;whiteSpace=wrap;html=1;" vertex="1" parent="1">
          <mxGeometry x="340" y="240" width="100" height="60" as="geometry" />
        </mxCell>
        <mxCell id="DNhM-TmXbSj0VFOhJrKE-4" value="解析so&lt;br&gt;生成完成Op和Kernel&lt;br&gt;维护到全局Map" style="rounded=0;whiteSpace=wrap;html=1;" vertex="1" parent="1">
          <mxGeometry x="480" y="190" width="140" height="60" as="geometry" />
        </mxCell>
        <mxCell id="DNhM-TmXbSj0VFOhJrKE-26" style="edgeStyle=orthogonalEdgeStyle;rounded=0;orthogonalLoop=1;jettySize=auto;html=1;exitX=0.5;exitY=1;exitDx=0;exitDy=0;entryX=0.5;entryY=0;entryDx=0;entryDy=0;fontSize=14;fillColor=#d5e8d4;strokeColor=#82b366;" edge="1" parent="1" source="DNhM-TmXbSj0VFOhJrKE-5" target="DNhM-TmXbSj0VFOhJrKE-22">
          <mxGeometry relative="1" as="geometry">
            <mxPoint x="364.9999999999999" y="410" as="targetPoint" />
            <Array as="points">
              <mxPoint x="550" y="390" />
              <mxPoint x="365" y="390" />
            </Array>
          </mxGeometry>
        </mxCell>
        <mxCell id="DNhM-TmXbSj0VFOhJrKE-5" value="自动生成用户python端调用的对应Op的API" style="rounded=0;whiteSpace=wrap;html=1;" vertex="1" parent="1">
          <mxGeometry x="480" y="300" width="140" height="60" as="geometry" />
        </mxCell>
        <mxCell id="DNhM-TmXbSj0VFOhJrKE-11" value="预测API" style="text;html=1;strokeColor=none;fillColor=none;align=center;verticalAlign=middle;whiteSpace=wrap;rounded=0;dashed=1;fontSize=14;" vertex="1" parent="1">
          <mxGeometry x="30" y="200" width="80" height="20" as="geometry" />
        </mxCell>
        <mxCell id="DNhM-TmXbSj0VFOhJrKE-13" value="训练API" style="text;html=1;strokeColor=none;fillColor=none;align=center;verticalAlign=middle;whiteSpace=wrap;rounded=0;dashed=1;fontSize=14;" vertex="1" parent="1">
          <mxGeometry x="334" y="180" width="80" height="20" as="geometry" />
        </mxCell>
        <mxCell id="DNhM-TmXbSj0VFOhJrKE-22" value="一键打通，提升易用性" style="rounded=0;whiteSpace=wrap;html=1;dashed=1;fillColor=#d5e8d4;fontSize=14;strokeColor=#82b366;" vertex="1" parent="1">
          <mxGeometry x="280" y="420" width="170" height="40" as="geometry" />
        </mxCell>
        <mxCell id="DNhM-TmXbSj0VFOhJrKE-31" style="edgeStyle=orthogonalEdgeStyle;rounded=0;orthogonalLoop=1;jettySize=auto;html=1;exitX=0.5;exitY=1;exitDx=0;exitDy=0;fontSize=14;fillColor=#ffe6cc;strokeColor=#d79b00;" edge="1" parent="1" source="DNhM-TmXbSj0VFOhJrKE-27" target="DNhM-TmXbSj0VFOhJrKE-10">
          <mxGeometry relative="1" as="geometry" />
        </mxCell>
        <mxCell id="DNhM-TmXbSj0VFOhJrKE-32" style="edgeStyle=orthogonalEdgeStyle;rounded=0;orthogonalLoop=1;jettySize=auto;html=1;exitX=0.5;exitY=1;exitDx=0;exitDy=0;fontSize=14;fillColor=#ffe6cc;strokeColor=#d79b00;" edge="1" parent="1" source="DNhM-TmXbSj0VFOhJrKE-27" target="DNhM-TmXbSj0VFOhJrKE-12">
          <mxGeometry relative="1" as="geometry">
            <Array as="points">
              <mxPoint x="165" y="130" />
              <mxPoint x="485" y="130" />
            </Array>
          </mxGeometry>
        </mxCell>
        <mxCell id="DNhM-TmXbSj0VFOhJrKE-27" value="API体系打通" style="rounded=0;whiteSpace=wrap;html=1;dashed=1;fillColor=#ffe6cc;fontSize=14;strokeColor=#d79b00;" vertex="1" parent="1">
          <mxGeometry x="105" y="60" width="120" height="40" as="geometry" />
        </mxCell>
        <mxCell id="DNhM-TmXbSj0VFOhJrKE-35" style="edgeStyle=orthogonalEdgeStyle;rounded=0;orthogonalLoop=1;jettySize=auto;html=1;exitX=0.5;exitY=1;exitDx=0;exitDy=0;entryX=0.5;entryY=0;entryDx=0;entryDy=0;fontSize=14;fillColor=#dae8fc;strokeColor=#6c8ebf;" edge="1" parent="1" source="DNhM-TmXbSj0VFOhJrKE-28" target="DNhM-TmXbSj0VFOhJrKE-4">
          <mxGeometry relative="1" as="geometry" />
        </mxCell>
        <mxCell id="DNhM-TmXbSj0VFOhJrKE-36" style="edgeStyle=orthogonalEdgeStyle;rounded=0;orthogonalLoop=1;jettySize=auto;html=1;exitX=0.5;exitY=1;exitDx=0;exitDy=0;entryX=0.5;entryY=0;entryDx=0;entryDy=0;fontSize=14;fillColor=#dae8fc;strokeColor=#6c8ebf;" edge="1" parent="1" source="DNhM-TmXbSj0VFOhJrKE-28" target="DNhM-TmXbSj0VFOhJrKE-2">
          <mxGeometry relative="1" as="geometry">
            <Array as="points">
              <mxPoint x="499" y="140" />
              <mxPoint x="250" y="140" />
            </Array>
          </mxGeometry>
        </mxCell>
        <mxCell id="DNhM-TmXbSj0VFOhJrKE-37" style="edgeStyle=orthogonalEdgeStyle;rounded=0;orthogonalLoop=1;jettySize=auto;html=1;exitX=0.5;exitY=1;exitDx=0;exitDy=0;fontSize=14;fillColor=#dae8fc;strokeColor=#6c8ebf;" edge="1" parent="1" source="DNhM-TmXbSj0VFOhJrKE-28" target="DNhM-TmXbSj0VFOhJrKE-1">
          <mxGeometry relative="1" as="geometry">
            <Array as="points">
              <mxPoint x="499" y="140" />
              <mxPoint x="100" y="140" />
            </Array>
          </mxGeometry>
        </mxCell>
        <mxCell id="DNhM-TmXbSj0VFOhJrKE-38" style="edgeStyle=orthogonalEdgeStyle;rounded=0;orthogonalLoop=1;jettySize=auto;html=1;exitX=0.5;exitY=1;exitDx=0;exitDy=0;fontSize=14;fillColor=#dae8fc;strokeColor=#6c8ebf;" edge="1" parent="1" source="DNhM-TmXbSj0VFOhJrKE-28" target="DNhM-TmXbSj0VFOhJrKE-3">
          <mxGeometry relative="1" as="geometry">
            <Array as="points">
              <mxPoint x="499" y="140" />
              <mxPoint x="390" y="140" />
            </Array>
          </mxGeometry>
        </mxCell>
        <mxCell id="DNhM-TmXbSj0VFOhJrKE-28" value="Function编译存储&lt;br&gt;基于Function构建Op&lt;br&gt;Op执行" style="rounded=0;whiteSpace=wrap;html=1;dashed=1;fillColor=#dae8fc;fontSize=14;strokeColor=#6c8ebf;" vertex="1" parent="1">
          <mxGeometry x="414" y="30" width="170" height="60" as="geometry" />
        </mxCell>
        <mxCell id="DNhM-TmXbSj0VFOhJrKE-33" value="嘉彬" style="text;html=1;strokeColor=none;fillColor=none;align=center;verticalAlign=middle;whiteSpace=wrap;rounded=0;dashed=1;fontSize=14;" vertex="1" parent="1">
          <mxGeometry x="110" y="30" width="40" height="20" as="geometry" />
        </mxCell>
        <mxCell id="DNhM-TmXbSj0VFOhJrKE-39" value="&lt;meta charset=&quot;utf-8&quot;&gt;&lt;span style=&quot;color: rgb(0, 0, 0); font-family: helvetica; font-size: 14px; font-style: normal; font-weight: 400; letter-spacing: normal; text-indent: 0px; text-transform: none; word-spacing: 0px; background-color: rgb(248, 249, 250); display: inline; float: none;&quot;&gt;留杰&lt;/span&gt;&lt;br style=&quot;color: rgb(0, 0, 0); font-family: helvetica; font-size: 14px; font-style: normal; font-weight: 400; letter-spacing: normal; text-indent: 0px; text-transform: none; word-spacing: 0px; background-color: rgb(248, 249, 250);&quot;&gt;&lt;span style=&quot;color: rgb(0, 0, 0); font-family: helvetica; font-size: 14px; font-style: normal; font-weight: 400; letter-spacing: normal; text-indent: 0px; text-transform: none; word-spacing: 0px; background-color: rgb(248, 249, 250); display: inline; float: none;&quot;&gt;（Linux）&lt;/span&gt;" style="text;whiteSpace=wrap;html=1;fontSize=14;align=center;" vertex="1" parent="1">
          <mxGeometry x="280" y="460" width="90" height="50" as="geometry" />
        </mxCell>
        <mxCell id="DNhM-TmXbSj0VFOhJrKE-40" value="&lt;meta charset=&quot;utf-8&quot;&gt;&lt;span style=&quot;color: rgb(0, 0, 0); font-family: helvetica; font-size: 14px; font-style: normal; font-weight: 400; letter-spacing: normal; text-indent: 0px; text-transform: none; word-spacing: 0px; background-color: rgb(248, 249, 250); display: inline; float: none;&quot;&gt;周威&lt;/span&gt;&lt;br style=&quot;color: rgb(0, 0, 0); font-family: helvetica; font-size: 14px; font-style: normal; font-weight: 400; letter-spacing: normal; text-indent: 0px; text-transform: none; word-spacing: 0px; background-color: rgb(248, 249, 250);&quot;&gt;&lt;span style=&quot;color: rgb(0, 0, 0); font-family: helvetica; font-size: 14px; font-style: normal; font-weight: 400; letter-spacing: normal; text-indent: 0px; text-transform: none; word-spacing: 0px; background-color: rgb(248, 249, 250); display: inline; float: none;&quot;&gt;（Windows）&lt;/span&gt;" style="text;whiteSpace=wrap;html=1;fontSize=14;align=center;" vertex="1" parent="1">
          <mxGeometry x="350" y="460" width="110" height="50" as="geometry" />
        </mxCell>
        <mxCell id="DNhM-TmXbSj0VFOhJrKE-41" value="威行" style="text;html=1;strokeColor=none;fillColor=none;align=center;verticalAlign=middle;whiteSpace=wrap;rounded=0;dashed=1;fontSize=14;" vertex="1" parent="1">
          <mxGeometry x="360" y="50" width="40" height="20" as="geometry" />
        </mxCell>
      </root>
    </mxGraphModel>
  </diagram>
</mxfile>
